<?xml version="1.0" encoding="UTF-8"?>
<svg xmlns="http://www.w3.org/2000/svg" xmlns:xlink="http://www.w3.org/1999/xlink" viewBox="0 0 96 96" width="96px" height="96px">
<g id="surface214646787">
<path style=" stroke:none;fill-rule:nonzero;fill:rgb(90.588236%,29.803923%,23.529412%);fill-opacity:1;" d="M 54.71875 48 C 54.71875 51.710938 51.710938 54.71875 48 54.71875 C 44.289062 54.71875 41.28125 51.710938 41.28125 48 C 41.28125 44.289062 44.289062 41.28125 48 41.28125 C 51.710938 41.28125 54.71875 44.289062 54.71875 48 Z M 54.71875 48 "/>
<path style=" stroke:none;fill-rule:nonzero;fill:rgb(12.156863%,12.941177%,16.862746%);fill-opacity:1;" d="M 48 55.679688 C 43.765625 55.679688 40.320312 52.234375 40.320312 48 C 40.320312 43.765625 43.765625 40.320312 48 40.320312 C 52.234375 40.320312 55.679688 43.765625 55.679688 48 C 55.679688 52.234375 52.234375 55.679688 48 55.679688 Z M 48 42.238281 C 44.824219 42.238281 42.238281 44.824219 42.238281 48 C 42.238281 51.175781 44.824219 53.761719 48 53.761719 C 51.175781 53.761719 53.761719 51.175781 53.761719 48 C 53.761719 44.824219 51.175781 42.238281 48 42.238281 Z M 48 42.238281 "/>
<path style=" stroke:none;fill-rule:nonzero;fill:rgb(90.588236%,29.803923%,23.529412%);fill-opacity:1;" d="M 84.960938 48 C 84.960938 42.839844 78.746094 38.371094 69.101562 35.714844 C 71.582031 26.023438 70.816406 18.398438 66.390625 15.8125 C 64.640625 14.792969 62.523438 14.605469 60.089844 15.257812 C 56.425781 16.238281 52.222656 19.109375 48 23.320312 C 43.777344 19.109375 39.574219 16.242188 35.910156 15.257812 C 33.476562 14.605469 31.359375 14.792969 29.609375 15.8125 C 25.183594 18.398438 24.417969 26.019531 26.898438 35.714844 C 17.253906 38.371094 11.039062 42.839844 11.039062 48 C 11.039062 53.160156 17.253906 57.628906 26.898438 60.285156 C 24.417969 69.980469 25.183594 77.601562 29.609375 80.1875 C 30.679688 80.808594 31.882812 81.125 33.21875 81.121094 C 34.066406 81.121094 34.964844 80.996094 35.910156 80.742188 C 39.574219 79.761719 43.777344 76.894531 48 72.679688 C 52.222656 76.894531 56.425781 79.761719 60.089844 80.742188 C 61.035156 80.996094 61.933594 81.121094 62.78125 81.121094 C 64.117188 81.121094 65.320312 80.8125 66.390625 80.1875 C 70.816406 77.601562 71.582031 69.980469 69.101562 60.285156 C 78.746094 57.628906 84.960938 53.160156 84.960938 48 Z M 60.835938 18.039062 C 61.53125 17.855469 62.175781 17.761719 62.769531 17.761719 C 63.59375 17.761719 64.320312 17.941406 64.9375 18.300781 C 67.90625 20.035156 68.511719 26.382812 66.300781 35.015625 C 63.253906 34.328125 59.929688 33.8125 56.398438 33.496094 C 54.324219 30.507812 52.167969 27.785156 49.996094 25.402344 C 53.855469 21.539062 57.636719 18.894531 60.835938 18.039062 Z M 58.324219 54.046875 C 57.191406 56.03125 56 57.929688 54.78125 59.75 C 52.609375 59.910156 50.347656 60 48 60 C 45.652344 60 43.390625 59.910156 41.222656 59.75 C 40 57.929688 38.808594 56.03125 37.675781 54.046875 C 36.507812 51.996094 35.457031 49.976562 34.515625 48 C 35.457031 46.023438 36.507812 44.003906 37.675781 41.953125 C 38.808594 39.96875 40 38.070312 41.222656 36.25 C 43.390625 36.089844 45.652344 36 48 36 C 50.347656 36 52.609375 36.089844 54.777344 36.25 C 56 38.070312 57.191406 39.96875 58.324219 41.953125 C 59.496094 44.003906 60.546875 46.023438 61.484375 48 C 60.546875 49.976562 59.496094 51.996094 58.324219 54.046875 Z M 63.019531 51.402344 C 64.019531 53.765625 64.84375 56.039062 65.511719 58.203125 C 63.328125 58.6875 60.96875 59.09375 58.453125 59.394531 C 59.261719 58.121094 60.054688 56.820312 60.824219 55.472656 C 61.605469 54.113281 62.332031 52.753906 63.019531 51.402344 Z M 48 68.503906 C 46.429688 66.765625 44.863281 64.84375 43.332031 62.761719 C 44.859375 62.835938 46.414062 62.878906 48 62.878906 C 49.585938 62.878906 51.140625 62.835938 52.667969 62.761719 C 51.136719 64.84375 49.570312 66.765625 48 68.503906 Z M 37.546875 59.394531 C 35.03125 59.09375 32.671875 58.6875 30.488281 58.203125 C 31.15625 56.039062 31.980469 53.765625 32.980469 51.402344 C 33.667969 52.753906 34.394531 54.113281 35.171875 55.472656 C 35.945312 56.820312 36.738281 58.125 37.546875 59.394531 Z M 32.980469 44.597656 C 31.980469 42.234375 31.15625 39.960938 30.488281 37.796875 C 32.671875 37.308594 35.03125 36.90625 37.550781 36.605469 C 36.738281 37.875 35.945312 39.179688 35.175781 40.527344 C 34.394531 41.890625 33.667969 43.246094 32.980469 44.597656 Z M 48 27.5 C 49.570312 29.234375 51.136719 31.15625 52.667969 33.238281 C 51.140625 33.164062 49.585938 33.121094 48 33.121094 C 46.414062 33.121094 44.859375 33.164062 43.332031 33.238281 C 44.863281 31.15625 46.429688 29.234375 48 27.5 Z M 60.824219 40.527344 C 60.054688 39.179688 59.261719 37.878906 58.453125 36.605469 C 60.96875 36.90625 63.328125 37.3125 65.511719 37.796875 C 64.84375 39.960938 64.019531 42.234375 63.019531 44.597656 C 62.332031 43.246094 61.605469 41.890625 60.824219 40.527344 Z M 31.0625 18.300781 C 31.679688 17.941406 32.402344 17.761719 33.230469 17.761719 C 33.824219 17.761719 34.472656 17.855469 35.164062 18.039062 C 38.363281 18.894531 42.144531 21.535156 46.003906 25.402344 C 43.832031 27.785156 41.675781 30.507812 39.601562 33.496094 C 36.070312 33.8125 32.746094 34.328125 29.699219 35.015625 C 27.488281 26.382812 28.09375 20.035156 31.0625 18.300781 Z M 13.921875 48 C 13.921875 44.546875 19.105469 40.859375 27.679688 38.496094 C 28.613281 41.527344 29.832031 44.722656 31.335938 48 C 29.832031 51.277344 28.613281 54.472656 27.679688 57.503906 C 19.105469 55.140625 13.921875 51.453125 13.921875 48 Z M 35.164062 77.960938 C 33.503906 78.402344 32.121094 78.316406 31.0625 77.699219 C 28.09375 75.964844 27.492188 69.617188 29.699219 60.984375 C 32.746094 61.671875 36.070312 62.1875 39.601562 62.503906 C 41.671875 65.492188 43.828125 68.214844 46.003906 70.597656 C 42.144531 74.464844 38.363281 77.105469 35.164062 77.960938 Z M 64.9375 77.699219 C 63.878906 78.320312 62.5 78.40625 60.835938 77.960938 C 57.636719 77.105469 53.855469 74.464844 49.996094 70.597656 C 52.167969 68.214844 54.324219 65.492188 56.398438 62.503906 C 59.929688 62.1875 63.253906 61.671875 66.296875 60.984375 C 68.511719 69.617188 67.90625 75.964844 64.9375 77.699219 Z M 68.320312 57.503906 C 67.386719 54.472656 66.167969 51.277344 64.664062 48 C 66.167969 44.722656 67.386719 41.527344 68.320312 38.496094 C 76.894531 40.859375 82.078125 44.546875 82.078125 48 C 82.078125 51.453125 76.894531 55.140625 68.320312 57.503906 Z M 68.320312 57.503906 "/>
<path style=" stroke:none;fill-rule:nonzero;fill:rgb(12.156863%,12.941177%,16.862746%);fill-opacity:1;" d="M 33.210938 81.601562 C 31.800781 81.601562 30.507812 81.265625 29.371094 80.601562 C 24.921875 78.003906 23.820312 70.734375 26.320312 60.621094 C 16.296875 57.773438 10.558594 53.183594 10.558594 48 C 10.558594 42.816406 16.296875 38.226562 26.320312 35.378906 C 23.820312 25.265625 24.921875 17.996094 29.371094 15.398438 C 31.230469 14.3125 33.472656 14.105469 36.035156 14.792969 C 39.605469 15.75 43.734375 18.460938 48 22.644531 C 52.265625 18.460938 56.394531 15.75 59.964844 14.792969 C 62.527344 14.109375 64.769531 14.3125 66.628906 15.398438 C 71.078125 17.996094 72.179688 25.265625 69.679688 35.378906 C 79.703125 38.226562 85.441406 42.816406 85.441406 48 C 85.441406 53.183594 79.703125 57.773438 69.679688 60.621094 C 72.179688 70.734375 71.078125 78.003906 66.628906 80.601562 C 64.78125 81.679688 62.515625 81.890625 59.964844 81.207031 C 56.394531 80.25 52.265625 77.539062 48 73.355469 C 43.734375 77.539062 39.605469 80.25 36.035156 81.207031 C 35.054688 81.46875 34.105469 81.601562 33.21875 81.601562 C 33.214844 81.601562 33.214844 81.601562 33.210938 81.601562 Z M 33.21875 15.359375 C 31.972656 15.359375 30.84375 15.648438 29.851562 16.230469 C 25.796875 18.597656 24.867188 25.835938 27.363281 35.59375 C 27.425781 35.847656 27.277344 36.109375 27.023438 36.175781 C 17.316406 38.851562 11.519531 43.273438 11.519531 48 C 11.519531 52.726562 17.316406 57.148438 27.023438 59.824219 C 27.277344 59.890625 27.425781 60.152344 27.363281 60.40625 C 24.867188 70.164062 25.796875 77.402344 29.851562 79.769531 C 30.84375 80.347656 31.972656 80.640625 33.210938 80.640625 C 33.214844 80.640625 33.214844 80.640625 33.21875 80.640625 C 34.019531 80.640625 34.886719 80.519531 35.785156 80.277344 C 39.289062 79.339844 43.394531 76.59375 47.660156 72.339844 C 47.847656 72.152344 48.152344 72.152344 48.339844 72.339844 C 52.605469 76.59375 56.710938 79.339844 60.214844 80.277344 C 62.511719 80.890625 64.519531 80.71875 66.148438 79.769531 C 70.203125 77.402344 71.132812 70.164062 68.636719 60.40625 C 68.574219 60.152344 68.722656 59.890625 68.976562 59.824219 C 78.683594 57.148438 84.480469 52.726562 84.480469 48 C 84.480469 43.273438 78.683594 38.851562 68.976562 36.175781 C 68.722656 36.109375 68.574219 35.847656 68.636719 35.59375 C 71.132812 25.835938 70.199219 18.597656 66.144531 16.230469 C 64.515625 15.277344 62.519531 15.105469 60.210938 15.722656 C 56.710938 16.660156 52.605469 19.40625 48.339844 23.660156 C 48.152344 23.847656 47.847656 23.847656 47.660156 23.660156 C 43.394531 19.40625 39.285156 16.660156 35.785156 15.722656 C 34.882812 15.480469 34.027344 15.359375 33.21875 15.359375 Z M 62.769531 78.71875 C 62.132812 78.71875 61.445312 78.621094 60.710938 78.425781 C 57.511719 77.566406 53.691406 74.980469 49.65625 70.9375 C 49.476562 70.753906 49.46875 70.464844 49.640625 70.273438 C 51.816406 67.890625 53.957031 65.183594 56.003906 62.230469 C 56.085938 62.113281 56.210938 62.039062 56.355469 62.027344 C 59.824219 61.714844 63.132812 61.207031 66.195312 60.515625 C 66.445312 60.460938 66.699219 60.613281 66.765625 60.867188 C 69.007812 69.625 68.398438 76.234375 65.179688 78.113281 C 64.488281 78.515625 63.683594 78.71875 62.769531 78.71875 Z M 50.660156 70.582031 C 54.453125 74.320312 58.007812 76.707031 60.957031 77.496094 C 62.492188 77.90625 63.75 77.835938 64.695312 77.285156 C 67.433594 75.683594 67.917969 69.535156 65.949219 61.554688 C 63.042969 62.1875 59.921875 62.660156 56.664062 62.960938 C 54.730469 65.738281 52.710938 68.296875 50.660156 70.582031 Z M 33.230469 78.71875 C 32.316406 78.71875 31.511719 78.515625 30.820312 78.113281 C 27.601562 76.234375 26.992188 69.625 29.234375 60.867188 C 29.300781 60.613281 29.554688 60.464844 29.804688 60.515625 C 32.867188 61.207031 36.175781 61.714844 39.644531 62.027344 C 39.785156 62.039062 39.914062 62.113281 39.996094 62.230469 C 42.042969 65.183594 44.183594 67.890625 46.359375 70.273438 C 46.53125 70.464844 46.523438 70.753906 46.34375 70.9375 C 42.308594 74.976562 38.488281 77.566406 35.289062 78.425781 C 34.554688 78.621094 33.863281 78.71875 33.230469 78.71875 Z M 30.050781 61.554688 C 28.082031 69.535156 28.566406 75.683594 31.304688 77.285156 C 32.25 77.835938 33.507812 77.90625 35.042969 77.496094 C 37.992188 76.707031 41.546875 74.316406 45.339844 70.582031 C 43.289062 68.296875 41.269531 65.738281 39.335938 62.960938 C 36.078125 62.660156 32.957031 62.1875 30.050781 61.554688 Z M 48 68.980469 C 47.863281 68.980469 47.734375 68.925781 47.644531 68.824219 C 46.046875 67.058594 44.464844 65.113281 42.945312 63.046875 C 42.835938 62.898438 42.820312 62.699219 42.90625 62.535156 C 42.996094 62.371094 43.15625 62.269531 43.355469 62.28125 C 46.527344 62.4375 49.472656 62.4375 52.644531 62.28125 C 52.839844 62.269531 53.003906 62.371094 53.09375 62.535156 C 53.179688 62.699219 53.167969 62.894531 53.054688 63.046875 C 51.535156 65.113281 49.953125 67.058594 48.355469 68.824219 C 48.265625 68.925781 48.136719 68.980469 48 68.980469 Z M 44.320312 63.285156 C 45.519531 64.875 46.753906 66.382812 48 67.785156 C 49.246094 66.382812 50.480469 64.875 51.679688 63.285156 C 49.171875 63.382812 46.828125 63.382812 44.320312 63.285156 Z M 48 60.480469 C 45.726562 60.480469 43.433594 60.394531 41.183594 60.226562 C 41.039062 60.21875 40.90625 60.140625 40.820312 60.015625 C 39.539062 58.105469 38.339844 56.179688 37.257812 54.285156 C 36.125 52.300781 35.054688 50.253906 34.082031 48.207031 C 34.019531 48.074219 34.019531 47.925781 34.082031 47.792969 C 35.054688 45.746094 36.125 43.699219 37.257812 41.714844 C 38.339844 39.824219 39.539062 37.894531 40.824219 35.984375 C 40.90625 35.859375 41.039062 35.78125 41.1875 35.773438 C 45.683594 35.433594 50.320312 35.433594 54.8125 35.773438 C 54.960938 35.78125 55.09375 35.859375 55.175781 35.984375 C 56.460938 37.894531 57.660156 39.824219 58.742188 41.714844 C 59.875 43.699219 60.945312 45.746094 61.917969 47.792969 C 61.980469 47.925781 61.980469 48.074219 61.917969 48.207031 C 60.945312 50.253906 59.875 52.300781 58.742188 54.285156 C 57.660156 56.179688 56.460938 58.105469 55.179688 60.015625 C 55.097656 60.136719 54.960938 60.214844 54.816406 60.226562 C 52.566406 60.394531 50.273438 60.480469 48 60.480469 Z M 41.488281 59.285156 C 45.789062 59.597656 50.210938 59.597656 54.507812 59.285156 C 55.730469 57.460938 56.875 55.617188 57.90625 53.808594 C 58.988281 51.910156 60.015625 49.957031 60.953125 48 C 60.015625 46.042969 58.988281 44.089844 57.90625 42.191406 C 56.875 40.382812 55.734375 38.542969 54.507812 36.710938 C 50.207031 36.402344 45.789062 36.402344 41.488281 36.710938 C 40.265625 38.542969 39.121094 40.382812 38.089844 42.191406 C 37.007812 44.089844 35.984375 46.042969 35.042969 48 C 35.984375 49.957031 37.007812 51.910156 38.089844 53.808594 C 39.125 55.617188 40.265625 57.460938 41.488281 59.285156 Z M 58.453125 59.875 C 58.289062 59.875 58.132812 59.792969 58.046875 59.652344 C 57.949219 59.496094 57.949219 59.296875 58.046875 59.140625 C 58.9375 57.734375 59.710938 56.460938 60.410156 55.238281 C 61.140625 53.953125 61.875 52.589844 62.589844 51.1875 C 62.675781 51.019531 62.851562 50.921875 63.035156 50.925781 C 63.222656 50.933594 63.386719 51.046875 63.460938 51.21875 C 64.433594 53.519531 65.277344 55.824219 65.96875 58.0625 C 66.011719 58.1875 65.996094 58.328125 65.925781 58.445312 C 65.859375 58.558594 65.746094 58.640625 65.617188 58.671875 C 63.359375 59.175781 60.96875 59.578125 58.507812 59.875 C 58.488281 59.875 58.472656 59.875 58.453125 59.875 Z M 62.972656 52.542969 C 62.402344 53.632812 61.820312 54.695312 61.242188 55.710938 C 60.683594 56.691406 60.074219 57.707031 59.398438 58.792969 C 61.292969 58.539062 63.132812 58.222656 64.898438 57.84375 C 64.34375 56.101562 63.699219 54.328125 62.972656 52.542969 Z M 37.546875 59.875 C 37.527344 59.875 37.507812 59.875 37.488281 59.875 C 35.03125 59.578125 32.640625 59.175781 30.382812 58.671875 C 30.253906 58.640625 30.140625 58.558594 30.074219 58.441406 C 30.003906 58.328125 29.992188 58.1875 30.03125 58.0625 C 30.722656 55.820312 31.566406 53.519531 32.539062 51.21875 C 32.613281 51.046875 32.777344 50.929688 32.964844 50.925781 C 33.140625 50.90625 33.324219 51.019531 33.410156 51.183594 C 34.125 52.585938 34.859375 53.949219 35.589844 55.234375 C 36.289062 56.457031 37.0625 57.734375 37.953125 59.136719 C 38.050781 59.292969 38.050781 59.492188 37.953125 59.652344 C 37.867188 59.792969 37.710938 59.875 37.546875 59.875 Z M 31.101562 57.84375 C 32.867188 58.222656 34.710938 58.539062 36.601562 58.792969 C 35.925781 57.707031 35.316406 56.691406 34.757812 55.710938 C 34.179688 54.695312 33.597656 53.632812 33.027344 52.542969 C 32.300781 54.328125 31.65625 56.101562 31.101562 57.84375 Z M 68.320312 57.984375 C 68.113281 57.984375 67.921875 57.851562 67.859375 57.644531 C 66.921875 54.59375 65.703125 51.414062 64.230469 48.199219 C 64.171875 48.074219 64.171875 47.925781 64.230469 47.800781 C 65.703125 44.585938 66.921875 41.40625 67.859375 38.355469 C 67.9375 38.105469 68.199219 37.964844 68.445312 38.03125 C 77.152344 40.429688 82.558594 44.25 82.558594 48 C 82.558594 51.75 77.152344 55.570312 68.445312 57.96875 C 68.402344 57.980469 68.359375 57.984375 68.320312 57.984375 Z M 65.191406 48 C 66.570312 51.027344 67.730469 54.027344 68.636719 56.917969 C 76.527344 54.667969 81.601562 51.1875 81.601562 48 C 81.601562 44.8125 76.527344 41.332031 68.636719 39.082031 C 67.730469 41.976562 66.570312 44.972656 65.191406 48 Z M 27.679688 57.984375 C 27.640625 57.984375 27.597656 57.980469 27.554688 57.96875 C 18.847656 55.570312 13.441406 51.75 13.441406 48 C 13.441406 44.25 18.847656 40.429688 27.554688 38.03125 C 27.800781 37.964844 28.0625 38.105469 28.140625 38.355469 C 29.078125 41.40625 30.300781 44.585938 31.773438 47.800781 C 31.832031 47.925781 31.832031 48.074219 31.773438 48.199219 C 30.296875 51.417969 29.078125 54.59375 28.140625 57.644531 C 28.078125 57.851562 27.886719 57.984375 27.679688 57.984375 Z M 27.363281 39.082031 C 19.472656 41.332031 14.398438 44.8125 14.398438 48 C 14.398438 51.1875 19.472656 54.667969 27.363281 56.917969 C 28.269531 54.027344 29.429688 51.03125 30.808594 48 C 29.429688 44.972656 28.269531 41.976562 27.363281 39.082031 Z M 63.019531 45.078125 C 62.839844 45.078125 62.671875 44.976562 62.589844 44.816406 C 61.863281 43.386719 61.148438 42.0625 60.410156 40.765625 C 59.714844 39.542969 58.941406 38.265625 58.046875 36.863281 C 57.949219 36.707031 57.949219 36.507812 58.046875 36.347656 C 58.144531 36.191406 58.320312 36.105469 58.511719 36.128906 C 60.96875 36.421875 63.363281 36.828125 65.617188 37.328125 C 65.75 37.359375 65.859375 37.441406 65.929688 37.558594 C 65.996094 37.671875 66.011719 37.8125 65.972656 37.9375 C 65.28125 40.183594 64.433594 42.484375 63.460938 44.785156 C 63.390625 44.957031 63.222656 45.070312 63.039062 45.078125 C 63.03125 45.078125 63.023438 45.078125 63.019531 45.078125 Z M 61.242188 40.289062 C 61.828125 41.316406 62.398438 42.359375 62.972656 43.460938 C 63.695312 41.675781 64.34375 39.898438 64.894531 38.15625 C 63.132812 37.777344 61.289062 37.460938 59.398438 37.207031 C 60.078125 38.292969 60.683594 39.308594 61.242188 40.289062 Z M 32.980469 45.078125 C 32.976562 45.078125 32.96875 45.078125 32.964844 45.078125 C 32.777344 45.070312 32.609375 44.957031 32.539062 44.785156 C 31.566406 42.484375 30.722656 40.183594 30.027344 37.941406 C 29.988281 37.8125 30.003906 37.671875 30.070312 37.558594 C 30.140625 37.441406 30.253906 37.359375 30.382812 37.332031 C 32.640625 36.828125 35.03125 36.421875 37.492188 36.128906 C 37.679688 36.109375 37.855469 36.191406 37.953125 36.347656 C 38.054688 36.507812 38.050781 36.707031 37.953125 36.863281 C 37.0625 38.269531 36.289062 39.546875 35.589844 40.765625 C 34.851562 42.0625 34.136719 43.386719 33.410156 44.816406 C 33.328125 44.976562 33.160156 45.078125 32.980469 45.078125 Z M 31.101562 38.15625 C 31.65625 39.898438 32.304688 41.675781 33.027344 43.460938 C 33.601562 42.359375 34.171875 41.316406 34.757812 40.289062 C 35.316406 39.308594 35.921875 38.292969 36.601562 37.207031 C 34.710938 37.460938 32.867188 37.777344 31.101562 38.15625 Z M 66.300781 35.496094 C 66.265625 35.496094 66.230469 35.492188 66.195312 35.484375 C 63.132812 34.792969 59.824219 34.285156 56.355469 33.972656 C 56.214844 33.960938 56.085938 33.886719 56.003906 33.769531 C 53.957031 30.816406 51.816406 28.109375 49.640625 25.726562 C 49.46875 25.539062 49.476562 25.246094 49.65625 25.066406 C 53.691406 21.023438 57.511719 18.433594 60.710938 17.578125 C 62.503906 17.097656 64.011719 17.207031 65.179688 17.886719 C 68.398438 19.765625 69.007812 26.378906 66.765625 35.136719 C 66.710938 35.351562 66.515625 35.496094 66.300781 35.496094 Z M 56.664062 33.039062 C 59.921875 33.339844 63.042969 33.8125 65.949219 34.445312 C 67.917969 26.464844 67.433594 20.316406 64.695312 18.714844 C 63.753906 18.167969 62.492188 18.09375 60.957031 18.503906 C 58.007812 19.292969 54.453125 21.683594 50.660156 25.421875 C 52.710938 27.699219 54.730469 30.261719 56.664062 33.039062 Z M 29.699219 35.496094 C 29.484375 35.496094 29.289062 35.351562 29.234375 35.132812 C 26.992188 26.375 27.601562 19.765625 30.820312 17.886719 C 31.988281 17.207031 33.496094 17.097656 35.289062 17.578125 C 38.488281 18.433594 42.308594 21.023438 46.34375 25.066406 C 46.523438 25.246094 46.527344 25.539062 46.359375 25.726562 C 44.183594 28.109375 42.042969 30.816406 39.996094 33.769531 C 39.914062 33.886719 39.785156 33.960938 39.644531 33.972656 C 36.175781 34.285156 32.867188 34.792969 29.804688 35.484375 C 29.769531 35.492188 29.734375 35.496094 29.699219 35.496094 Z M 31.304688 18.714844 C 28.566406 20.316406 28.082031 26.464844 30.050781 34.445312 C 32.957031 33.8125 36.078125 33.339844 39.335938 33.039062 C 41.269531 30.261719 43.289062 27.699219 45.339844 25.417969 C 41.546875 21.679688 37.992188 19.292969 35.039062 18.503906 C 33.511719 18.09375 32.25 18.164062 31.304688 18.714844 Z M 52.667969 33.71875 C 52.660156 33.71875 52.652344 33.71875 52.644531 33.71875 C 49.472656 33.5625 46.527344 33.5625 43.355469 33.71875 C 43.15625 33.722656 42.996094 33.625 42.90625 33.464844 C 42.820312 33.300781 42.835938 33.101562 42.945312 32.953125 C 44.46875 30.882812 46.050781 28.941406 47.644531 27.175781 C 47.828125 26.976562 48.175781 26.976562 48.355469 27.175781 C 49.953125 28.9375 51.53125 30.882812 53.058594 32.953125 C 53.167969 33.101562 53.179688 33.300781 53.09375 33.464844 C 53.007812 33.621094 52.84375 33.71875 52.667969 33.71875 Z M 48 32.640625 C 49.191406 32.640625 50.425781 32.664062 51.679688 32.714844 C 50.476562 31.125 49.242188 29.613281 48 28.21875 C 46.757812 29.617188 45.523438 31.125 44.320312 32.714844 C 45.574219 32.664062 46.808594 32.640625 48 32.640625 Z M 48 32.640625 "/>
</g>
</svg>
